<?xml version="1.0" encoding="iso-8859-1"?>
<!-- Generator: Adobe Illustrator 19.0.0, SVG Export Plug-In . SVG Version: 6.00 Build 0)  -->
<svg xmlns="http://www.w3.org/2000/svg" xmlns:xlink="http://www.w3.org/1999/xlink" version="1.1" id="Capa_1" x="0px" y="0px" viewBox="0 0 480.001 480.001" style="enable-background:new 0 0 480.001 480.001;" xml:space="preserve" width="512px" height="512px">
<g>
	<g>
		<path d="M479.712,97.861c-0.608-2.176-2.104-4-4.136-5.016l-176-88c-3.656-1.824-8.128-0.6-10.328,2.856L240,85.093L190.752,7.701    c-2.2-3.456-6.664-4.68-10.328-2.856l-176,88c-2.024,1.016-3.528,2.84-4.136,5.016c-0.6,2.184-0.256,4.52,0.96,6.432    l53.672,84.344l-38.2,84.048c-1.784,3.912-0.144,8.536,3.704,10.464L56,300.941v79.056c0,3.032,1.712,5.8,4.424,7.16l176,88    c0.12,0.056,0.248,0.032,0.368,0.088c1.024,0.448,2.104,0.752,3.208,0.752s2.184-0.304,3.208-0.76    c0.12-0.056,0.256-0.032,0.368-0.088l176-88c2.712-1.352,4.424-4.12,4.424-7.152v-79.056l35.576-17.792    c3.848-1.928,5.488-6.552,3.704-10.464l-38.2-84.048l53.672-84.344C479.968,102.381,480.312,100.045,479.712,97.861z     M19.512,103.181l161.616-80.8l47.36,74.432l-161.616,80.8L19.512,103.181z M67.56,288.837l-33.096-16.544l33.384-73.424    l161.68,80.84l-33.376,73.424L67.576,288.845C67.576,288.845,67.568,288.845,67.56,288.837z M232,455.053l-160-80v-66.112    l124.424,62.208c1.048,0.52,2.192,0.752,3.344,0.792c0.08,0,0.152,0.056,0.232,0.056c0.904,0,1.808-0.152,2.664-0.456    c2.048-0.728,3.712-2.256,4.616-4.232L232,312.933V455.053z M240,267.053L81.888,187.997L240,108.941l158.112,79.056L240,267.053z     M408,375.053l-160,80v-142.12l24.72,54.376c0.896,1.984,2.56,3.504,4.616,4.232c0.856,0.304,1.76,0.456,2.664,0.456    c0.08,0,0.152-0.056,0.232-0.056c1.152-0.032,2.288-0.264,3.344-0.792L408,308.941V375.053z M445.52,272.293l-33.088,16.544    c0,0-0.008,0-0.016,0.008L283.84,353.133l-33.376-73.424l161.68-80.84L445.52,272.293z M413.128,177.613L251.512,96.805    l47.36-74.432l161.616,80.808L413.128,177.613z" fill="#FFFFFF"/>
	</g>
</g>
<g>
	<g>
		<rect x="232" y="131.997" width="16" height="24" fill="#FFFFFF"/>
	</g>
</g>
<g>
	<g>
		<rect x="232" y="219.997" width="16" height="24" fill="#FFFFFF"/>
	</g>
</g>
<g>
	<g>
		<rect x="184" y="179.997" width="24" height="16" fill="#FFFFFF"/>
	</g>
</g>
<g>
	<g>
		<rect x="272" y="179.997" width="24" height="16" fill="#FFFFFF"/>
	</g>
</g>
<g>
	<g>
		<rect x="191.231" y="216.766" transform="matrix(0.7071 -0.7071 0.7071 0.7071 -99.4086 209.5382)" width="24" height="16" fill="#FFFFFF"/>
	</g>
</g>
<g>
	<g>
		<rect x="264.79" y="143.237" transform="matrix(0.7071 -0.7071 0.7071 0.7071 -25.8707 240.0159)" width="24" height="16" fill="#FFFFFF"/>
	</g>
</g>
<g>
	<g>
		<rect x="268.787" y="212.791" transform="matrix(0.7071 -0.7071 0.7071 0.7071 -77.8824 261.5576)" width="16" height="24" fill="#FFFFFF"/>
	</g>
</g>
<g>
	<g>
		<rect x="195.234" y="139.225" transform="matrix(0.7071 -0.7071 0.7071 0.7071 -47.4062 188.0004)" width="16" height="24" fill="#FFFFFF"/>
	</g>
</g>
<g>
</g>
<g>
</g>
<g>
</g>
<g>
</g>
<g>
</g>
<g>
</g>
<g>
</g>
<g>
</g>
<g>
</g>
<g>
</g>
<g>
</g>
<g>
</g>
<g>
</g>
<g>
</g>
<g>
</g>
</svg>
