<?xml version="1.0" encoding="iso-8859-1"?>
<!-- Generator: Adobe Illustrator 19.0.0, SVG Export Plug-In . SVG Version: 6.00 Build 0)  -->
<svg xmlns="http://www.w3.org/2000/svg" xmlns:xlink="http://www.w3.org/1999/xlink" version="1.1" id="Capa_1" x="0px" y="0px" viewBox="0 0 512 512" style="enable-background:new 0 0 512 512;" xml:space="preserve" width="512px" height="512px">
<g>
	<g>
		<path d="M472,256h-24v-96c0-22.056-17.944-40-40-40H304V64c0-4.416-3.576-8-8-8H56c-4.424,0-8,3.584-8,8v26.08    c-0.12,0.112-0.28,0.144-0.4,0.264C37.536,100.4,32,113.776,32,128c0,0.184,0.024,0.36,0.024,0.536    c-2.84-1.048-6.144-0.48-8.424,1.808C13.536,140.4,8,153.776,8,168c0,7.592,1.624,14.912,4.616,21.64    c-17.696,20.896-16.72,52.304,2.976,72.016C25.336,271.4,36.272,279.504,48,286v42v24H32v16h16v16H16v16h32.808    c1.216,5.944,3.856,11.328,7.392,16H0v16h80v-0.808c2.584,0.528,5.264,0.808,8,0.808h8.64c3.904,27.096,27.208,48,55.36,48    c28.152,0,51.456-20.904,55.36-48H296h40.64c3.904,27.096,27.208,48,55.36,48s51.456-20.904,55.36-48H472    c22.056,0,40-17.944,40-40v-48v-48C512,273.944,494.056,256,472,256z M26.912,250.344c-12.584-12.584-14.264-32.008-5.048-46.416    L55.6,237.656l11.312-11.312l-24-24l-8-8C27.872,187.304,24,177.952,24,168c0-7.232,2.048-14.144,5.856-20.08L71.6,189.656    l11.312-11.312l-16-16l-8-8C51.872,147.304,48,137.952,48,128c0-7.256,2.056-14.184,5.896-20.144l76.44,75.272    C136.152,188.848,143.84,192,152,192c26.472,0,48,21.528,48,48s-21.528,48-48,48h-34.176C83.488,288,51.2,274.624,26.912,250.344z     M152,464c-22.056,0-40-17.944-40-40c0-22.056,17.944-40,40-40c22.056,0,40,17.944,40,40C192,446.056,174.056,464,152,464z     M288,416h-80.64c-3.904-27.096-27.208-48-55.36-48c-28.152,0-51.456,20.904-55.36,48H88c-13.232,0-24-10.768-24-24v-56h224V416z     M288,128v192H64v-26.384C80.896,300.392,99.072,304,117.824,304H152c35.288,0,64-28.712,64-64c0-35.288-28.712-64-64-64    c-3.928,0-7.64-1.52-10.448-4.272L64,95.352V72h224V128z M392,464c-22.056,0-40-17.944-40-40c0-22.056,17.944-40,40-40    c22.056,0,40,17.944,40,40C432,446.056,414.056,464,392,464z M496,384h-16c-8.824,0-16-7.176-16-16c0-8.824,7.176-16,16-16h16V384    z M496,336h-16c-17.648,0-32,14.352-32,32s14.352,32,32,32h14.528c-3.312,9.288-12.112,16-22.528,16h-24.64    c-3.904-27.096-27.208-48-55.36-48s-51.456,20.904-55.36,48H304v-88V136h104c13.232,0,24,10.768,24,24v104c0,4.416,3.576,8,8,8h32    c13.232,0,24,10.768,24,24V336z" fill="#FFFFFF"/>
	</g>
</g>
<g>
	<g>
		<path d="M408,152h-80c-4.424,0-8,3.584-8,8v72c0,4.416,3.576,8,8,8h80c4.424,0,8-3.584,8-8v-72C416,155.584,412.424,152,408,152z     M400,224h-64v-56h64V224z" fill="#FFFFFF"/>
	</g>
</g>
<g>
	<g>
		<rect x="320" y="256" width="40" height="16" fill="#FFFFFF"/>
	</g>
</g>
<g>
	<g>
		<path d="M152,208c-17.648,0-32,14.352-32,32s14.352,32,32,32s32-14.352,32-32S169.648,208,152,208z M152,256    c-8.824,0-16-7.176-16-16c0-8.824,7.176-16,16-16c8.824,0,16,7.176,16,16C168,248.824,160.824,256,152,256z" fill="#FFFFFF"/>
	</g>
</g>
<g>
	<g>
		<rect x="416" y="72" width="80" height="16" fill="#FFFFFF"/>
	</g>
</g>
<g>
	<g>
		<rect x="384" y="72" width="16" height="16" fill="#FFFFFF"/>
	</g>
</g>
<g>
	<g>
		<rect x="352" y="72" width="16" height="16" fill="#FFFFFF"/>
	</g>
</g>
<g>
	<g>
		<rect x="320" y="72" width="16" height="16" fill="#FFFFFF"/>
	</g>
</g>
<g>
	<g>
		<rect x="256" y="88" width="16" height="16" fill="#FFFFFF"/>
	</g>
</g>
<g>
	<g>
		<rect x="224" y="88" width="16" height="16" fill="#FFFFFF"/>
	</g>
</g>
<g>
	<g>
		<rect x="192" y="88" width="16" height="16" fill="#FFFFFF"/>
	</g>
</g>
<g>
	<g>
		<rect x="432" y="40" width="80" height="16" fill="#FFFFFF"/>
	</g>
</g>
<g>
	<g>
		<rect x="400" y="40" width="16" height="16" fill="#FFFFFF"/>
	</g>
</g>
<g>
	<g>
		<rect x="368" y="40" width="16" height="16" fill="#FFFFFF"/>
	</g>
</g>
<g>
	<g>
		<rect x="336" y="40" width="16" height="16" fill="#FFFFFF"/>
	</g>
</g>
<g>
	<g>
		<rect x="376" width="80" height="16" fill="#FFFFFF"/>
	</g>
</g>
<g>
	<g>
		<rect x="344" width="16" height="16" fill="#FFFFFF"/>
	</g>
</g>
<g>
	<g>
		<rect x="312" width="16" height="16" fill="#FFFFFF"/>
	</g>
</g>
<g>
	<g>
		<rect x="280" width="16" height="16" fill="#FFFFFF"/>
	</g>
</g>
<g>
	<g>
		<rect x="240" y="496" width="272" height="16" fill="#FFFFFF"/>
	</g>
</g>
<g>
	<g>
		<rect x="208" y="496" width="16" height="16" fill="#FFFFFF"/>
	</g>
</g>
<g>
	<g>
		<rect x="176" y="496" width="16" height="16" fill="#FFFFFF"/>
	</g>
</g>
<g>
	<g>
		<rect y="496" width="160" height="16" fill="#FFFFFF"/>
	</g>
</g>
<g>
	<g>
		<rect x="192" y="352" width="16" height="16" fill="#FFFFFF"/>
	</g>
</g>
<g>
	<g>
		<rect x="224" y="352" width="16" height="16" fill="#FFFFFF"/>
	</g>
</g>
<g>
	<g>
		<rect x="256" y="352" width="16" height="16" fill="#FFFFFF"/>
	</g>
</g>
<g>
</g>
<g>
</g>
<g>
</g>
<g>
</g>
<g>
</g>
<g>
</g>
<g>
</g>
<g>
</g>
<g>
</g>
<g>
</g>
<g>
</g>
<g>
</g>
<g>
</g>
<g>
</g>
<g>
</g>
</svg>
