<?xml version="1.0" encoding="iso-8859-1"?>
<!-- Generator: Adobe Illustrator 19.0.0, SVG Export Plug-In . SVG Version: 6.00 Build 0)  -->
<svg version="1.1" id="Capa_1" xmlns="http://www.w3.org/2000/svg" xmlns:xlink="http://www.w3.org/1999/xlink" x="0px" y="0px"
	 viewBox="0 0 480.496 480.496" style="enable-background:new 0 0 480.496 480.496;" xml:space="preserve">
<g>
	<g>
		<rect x="120.248" y="88.496" width="16" height="16"/>
	</g>
</g>
<g>
	<g>
		<rect x="152.248" y="88.496" width="16" height="16"/>
	</g>
</g>
<g>
	<g>
		<rect x="88.248" y="88.496" width="16" height="16"/>
	</g>
</g>
<g>
	<g>
		<path d="M392.248,120.496h-72v-24c0-22.056-17.944-40-40-40h-52.272c-5.728-10.072-16.608-16.88-28.728-16.48
			c-3.56-13.792-16.112-24.016-31-24.016c-3.888,0-7.712,0.72-11.296,2.096C151.752,7.368,140.76,0,128.248,0
			c-12.512,0-23.504,7.368-28.704,18.096C95.96,16.72,92.136,16,88.248,16c-14.888,0-27.44,10.216-30.992,24.016
			c-18.08-0.592-33.008,14-33.008,31.984c0,0.336,0.008,0.672,0.016,1.008C10.464,76.568,0.248,89.112,0.248,104
			c0,17.648,14.352,32,32,32h8v40.496c0,4.424,3.576,8,8,8c28.32,0,51.752-21.16,55.44-48.496h78.784
			c-23.064,15.888-38.224,42.44-38.224,72.496v128c0,4.424,3.576,8,8,8h32v80c0,4.424,3.576,8,8,8h104v40c0,4.424,3.576,8,8,8h168
			c4.424,0,8-3.576,8-8v-264C480.248,159.976,440.768,120.496,392.248,120.496z M312.248,224.496c2.048,0,4.096-0.784,5.656-2.344
			l24-24l-11.312-11.312l-10.344,10.344v-20.688h72c17.648,0,32,14.352,32,32s-14.352,32-32,32h-160c-17.648,0-32-14.352-32-32
			s14.352-32,32-32h72v20.688l-10.344-10.344l-11.312,11.312l24,24C308.152,223.712,310.2,224.496,312.248,224.496z M232.24,72.496
			h48.008c13.232,0,24,10.768,24,24v24h-52.72c2.928-4.832,4.72-10.44,4.72-16.496c0-14.888-10.216-27.44-24.016-30.992
			C232.232,72.84,232.24,72.664,232.24,72.496z M56.248,167.688v-31.192H87.44C84.256,152.144,71.896,164.504,56.248,167.688z
			 M32.248,119.992c-8.824,0.008-16-7.168-16-15.992c0-8.824,7.168-16,15.736-16c0.008,0,0.008,0,0.008,0
			c0.208,0.032,1.072,0.128,1.28,0.144c2.728,0.168,5.288-1.032,6.896-3.192c1.616-2.168,2.032-4.992,1.112-7.52
			c-0.696-1.92-1.032-3.696-1.032-5.432c0-8.824,7.176-16,16-16c1.72,0,3.496,0.344,5.432,1.048c2.512,0.912,5.384,0.496,7.56-1.152
			c2.168-1.64,3.344-4.272,3.144-6.976c-0.016-0.168-0.112-0.752-0.136-0.92c0-8.824,7.176-16,16-16c3.936,0,7.76,1.512,10.76,4.264
			c2.28,2.08,5.528,2.672,8.376,1.528c2.848-1.144,4.808-3.816,5.016-6.88C112.968,22.56,119.936,16,128.248,16
			s15.28,6.552,15.848,14.912c0.208,3.072,2.168,5.744,5.016,6.88c2.848,1.136,6.104,0.544,8.376-1.528
			c3-2.744,6.824-4.264,10.76-4.264c8.824,0,16,7.176,15.992,15.808c-0.024,0.168-0.112,0.944-0.128,1.12
			c-0.2,2.704,0.976,5.336,3.144,6.976c2.176,1.648,5.048,2.08,7.56,1.152c1.936-0.712,3.712-1.056,5.432-1.056
			c8.824,0,16,7.176,16,16c0,1.736-0.336,3.504-1.032,5.424c-0.92,2.528-0.504,5.36,1.112,7.52c1.616,2.16,4.192,3.304,6.896,3.192
			c0.128-0.008,0.88-0.096,1.256-0.144c8.712,0.128,15.768,7.256,15.768,16c0,8.824-7.176,16-16,16H32.248z M464.248,464.496h-152
			v-40c0-4.424-3.576-8-8-8h-104v-24.72c22.664-3.824,40-23.536,40-47.28h-16c0,14.872-10.232,27.288-24,30.864v-38.864
			c0-4.424-3.576-8-8-8h-32v-69.56c15.936,22.672,42.24,37.56,72,37.56h160c29.76,0,56.064-14.888,72-37.56V464.496z
			 M392.248,280.496h-160c-39.704,0-72-32.296-72-72c0-39.704,32.296-72,72-72h72v24h-72c-26.472,0-48,21.528-48,48s21.528,48,48,48
			h160c26.472,0,48-21.528,48-48s-21.528-48-48-48h-72v-24h72c39.704,0,72,32.296,72,72S431.952,280.496,392.248,280.496z"/>
	</g>
</g>
<g>
</g>
<g>
</g>
<g>
</g>
<g>
</g>
<g>
</g>
<g>
</g>
<g>
</g>
<g>
</g>
<g>
</g>
<g>
</g>
<g>
</g>
<g>
</g>
<g>
</g>
<g>
</g>
<g>
</g>
</svg>
