<?xml version="1.0" encoding="iso-8859-1"?>
<!-- Generator: Adobe Illustrator 19.0.0, SVG Export Plug-In . SVG Version: 6.00 Build 0)  -->
<svg version="1.1" id="Capa_1" xmlns="http://www.w3.org/2000/svg" xmlns:xlink="http://www.w3.org/1999/xlink" x="0px" y="0px"
	 viewBox="0 0 480.03 480.03" style="enable-background:new 0 0 480.03 480.03;" xml:space="preserve">
<g>
	<g>
		<path d="M472.03,280.015v-96c0-2.128-0.84-4.16-2.344-5.656l-21.656-21.656V62.879c13.768-3.576,24-15.992,24-30.864
			c0-17.648-14.352-32-32-32c-14.872,0-27.288,10.232-30.864,24h-66.272c-3.576-13.768-15.992-24-30.864-24
			s-27.288,10.232-30.864,24H192.03v-16c0-4.424-3.576-8-8-8h-80c-4.424,0-8,3.576-8,8v157.336L6.43,284.823
			c-7.32,9.76-8.48,22.6-3.016,33.504c5.448,10.912,16.424,17.688,28.616,17.688h16v81.136c-13.768,3.576-24,15.992-24,30.864
			c0,17.648,14.352,32,32,32c14.872,0,27.288-10.232,30.864-24h140.528c6.192,14.104,20.248,24,36.608,24h176
			c22.056,0,40-17.944,40-40v-96v-56C480.03,283.591,476.454,280.015,472.03,280.015z M440.03,16.015c8.824,0,16,7.176,16,16
			s-7.176,16-16,16c-8.824,0-16-7.176-16-16S431.206,16.015,440.03,16.015z M384.03,40.015h25.136
			c2.904,11.192,11.672,19.96,22.864,22.864v97.136c0,2.128,0.84,4.16,2.344,5.656l21.656,21.656v92.688h-24v-48
			c0-2.128-0.84-4.16-2.344-5.656l-45.656-45.656v-21.824c13.768-3.576,24-15.992,24-30.864s-10.232-27.288-24-30.864V40.015z
			 M392.03,128.015c0,8.824-7.176,16-16,16c-8.824,0-16-7.176-16-16c0-8.824,7.176-16,16-16
			C384.854,112.015,392.03,119.191,392.03,128.015z M312.03,16.015c8.824,0,16,7.176,16,16s-7.176,16-16,16c-8.824,0-16-7.176-16-16
			S303.206,16.015,312.03,16.015z M256.03,40.015h25.136c3.576,13.768,15.992,24,30.864,24s27.288-10.232,30.864-24h25.136v57.136
			c-11.192,2.912-19.96,11.672-22.864,22.864h-66.272c-2.912-11.192-11.672-19.96-22.864-22.864V40.015z M264.03,128.015
			c0,8.824-7.176,16-16,16c-8.824,0-16-7.176-16-16c0-8.824,7.176-16,16-16C256.854,112.015,264.03,119.191,264.03,128.015z
			 M192.03,40.015h48v57.136c-11.192,2.912-19.96,11.672-22.864,22.864H192.03V40.015z M192.03,136.015h25.136
			c3.576,13.768,15.992,24,30.864,24s27.288-10.232,30.864-24h66.272c2.912,11.192,11.672,19.96,22.864,22.864v25.136
			c0,2.128,0.84,4.16,2.344,5.656l45.656,45.656v44.688h-16v-16c0-13.232-10.768-24-24-24h-48c-13.232,0-24,10.768-24,24v16h-26
			l-86-114.664V136.015z M384.03,264.015v16h-64v-16c0-4.416,3.584-8,8-8h48C380.446,256.015,384.03,259.599,384.03,264.015z
			 M110.43,172.815c1.04-1.384,1.6-3.064,1.6-4.8v-24h24v-16h-24v-24h24v-16h-24v-24h24v-16h-24v-32h64v152
			c0,1.736,0.56,3.416,1.6,4.8l47.688,63.584c-2.816,1.88-5.056,4.064-6.96,5.96c-3.928,3.92-5.856,5.656-10.368,5.656
			c-4.512,0-6.432-1.736-10.36-5.656c-4.376-4.368-10.36-10.344-21.68-10.344c-11.312,0-17.288,5.976-21.648,10.344
			c-3.92,3.92-5.84,5.656-10.336,5.656c-4.496,0-6.416-1.736-10.336-5.656c-4.36-4.368-10.336-10.344-21.64-10.344
			c-11.312,0-17.288,5.976-21.648,10.344c-3.92,3.92-5.84,5.656-10.328,5.656c-4.496,0-6.416-1.736-10.336-5.656
			c-1.896-1.896-4.128-4.08-6.944-5.96L110.43,172.815z M56.03,464.015c-8.824,0-16-7.176-16-16c0-8.824,7.176-16,16-16
			c8.824,0,16,7.176,16,16C72.03,456.839,64.854,464.015,56.03,464.015z M224.03,440.015H86.894
			c-2.912-11.192-11.672-19.96-22.864-22.864v-81.136h72v25.136c-13.768,3.576-24,15.992-24,30.864c0,17.648,14.352,32,32,32
			c14.872,0,27.288-10.232,30.864-24h49.136V440.015z M144.03,376.015c8.824,0,16,7.176,16,16c0,8.824-7.176,16-16,16
			c-8.824,0-16-7.176-16-16C128.03,383.191,135.206,376.015,144.03,376.015z M224.03,344.015v40h-49.136
			c-2.912-11.192-11.672-19.96-22.864-22.864v-25.136h72V344.015z M232.03,280.015c-4.424,0-8,3.576-8,8v32h-192
			c-6.184,0-11.536-3.304-14.304-8.84c-2.776-5.536-2.208-11.808,1.504-16.76l33.88-45.168c1.64,0.92,3.176,2.344,5.264,4.432
			c4.352,4.36,10.328,10.336,21.64,10.336c11.304,0,17.28-5.976,21.64-10.344c3.92-3.92,5.84-5.656,10.336-5.656
			c4.488,0,6.408,1.736,10.328,5.656c4.36,4.368,10.336,10.344,21.648,10.344s17.288-5.976,21.648-10.344
			c3.92-3.92,5.84-5.656,10.336-5.656c4.512,0,6.44,1.736,10.368,5.664c4.376,4.36,10.352,10.336,21.672,10.336
			s17.304-5.976,21.68-10.344c2.096-2.088,3.632-3.512,5.28-4.432l23.08,30.776H232.03z M464.03,440.015c0,13.232-10.768,24-24,24
			h-176c-13.232,0-24-10.768-24-24v-76.688l18.344,18.344c1.496,1.504,3.528,2.344,5.656,2.344h24v16h16v-16h40v8h16v-8h40v16h16
			v-16h24c2.128,0,4.16-0.84,5.656-2.344l18.344-18.344V440.015z M464.03,340.703l-27.312,27.312H416.03v-16h-16v16h-96v-16h-16v16
			h-20.688l-27.312-27.312v-12.688v-32h34h190V340.703z"/>
	</g>
</g>
<g>
	<g>
		<rect x="312.03" y="432.015" width="16" height="16"/>
	</g>
</g>
<g>
	<g>
		<rect x="344.03" y="432.015" width="16" height="16"/>
	</g>
</g>
<g>
	<g>
		<rect x="376.03" y="432.015" width="16" height="16"/>
	</g>
</g>
<g>
</g>
<g>
</g>
<g>
</g>
<g>
</g>
<g>
</g>
<g>
</g>
<g>
</g>
<g>
</g>
<g>
</g>
<g>
</g>
<g>
</g>
<g>
</g>
<g>
</g>
<g>
</g>
<g>
</g>
</svg>
