<?xml version="1.0" encoding="iso-8859-1"?>
<!-- Generator: Adobe Illustrator 19.0.0, SVG Export Plug-In . SVG Version: 6.00 Build 0)  -->
<svg xmlns="http://www.w3.org/2000/svg" xmlns:xlink="http://www.w3.org/1999/xlink" version="1.1" id="Capa_1" x="0px" y="0px" viewBox="0 0 480 480" style="enable-background:new 0 0 480 480;" xml:space="preserve" width="512px" height="512px">
<g>
	<g>
		<path d="M440,32h-56v-8c0-13.232-10.768-24-24-24s-24,10.768-24,24v8H144v-8c0-13.232-10.768-24-24-24S96,10.768,96,24v8H40    C17.944,32,0,49.944,0,72v368c0,22.056,17.944,40,40,40h400c22.056,0,40-17.944,40-40V72C480,49.944,462.056,32,440,32z M352,24    c0-4.416,3.584-8,8-8c4.416,0,8,3.584,8,8v64c0,4.416-3.584,8-8,8c-4.416,0-8-3.584-8-8V24z M336.04,88.4    c0.224,13.048,10.864,23.6,23.96,23.6s23.736-10.552,23.96-23.6C393.096,90.24,400,98.328,400,108c0,11.032-8.968,20-20,20h-40    c-11.032,0-20-8.968-20-20C320,98.328,326.904,90.24,336.04,88.4z M112,24c0-4.416,3.584-8,8-8s8,3.584,8,8v64    c0,4.416-3.584,8-8,8s-8-3.584-8-8V24z M96.04,88.4C96.264,101.448,106.904,112,120,112s23.736-10.552,23.96-23.6    C153.096,90.24,160,98.328,160,108c0,11.032-8.968,20-20,20h-40c-11.032,0-20-8.968-20-20C80,98.328,86.904,90.24,96.04,88.4z     M464,440c0,13.232-10.768,24-24,24H40c-13.232,0-24-10.768-24-24V176h448V440z M464,160H16V72c0-13.232,10.768-24,24-24h56    v24.408C78.048,74.424,64,89.52,64,108c0,19.848,16.152,36,36,36h40c19.848,0,36-16.152,36-36c0-18.48-14.048-33.576-32-35.592V48    h192v24.408C318.048,74.424,304,89.52,304,108c0,19.848,16.152,36,36,36h40c19.848,0,36-16.152,36-36    c0-18.48-14.048-33.576-32-35.592V48h56c13.232,0,24,10.768,24,24V160z" fill="#FFFFFF"/>
	</g>
</g>
<g>
	<g>
		<rect x="96" y="192" width="16" height="16" fill="#FFFFFF"/>
	</g>
</g>
<g>
	<g>
		<rect x="64" y="192" width="16" height="16" fill="#FFFFFF"/>
	</g>
</g>
<g>
	<g>
		<rect x="32" y="192" width="16" height="16" fill="#FFFFFF"/>
	</g>
</g>
<g>
	<g>
		<path d="M433.312,376.112l-48-8c-2.528-0.408-5.144,0.408-6.968,2.232L372.688,376H264v-16c0-4.424-3.576-8-8-8h-33    c-2.208,0-4.32,0.912-5.832,2.528l-9.512,10.152l-11.168-10.504C195,352.784,193.04,352,191,352H48c-4.424,0-8,3.576-8,8v80    c0,4.424,3.576,8,8,8h144c2.128,0,4.16-0.84,5.656-2.344L208,435.312l10.344,10.344C219.84,447.16,221.872,448,224,448h32    c4.424,0,8-3.576,8-8v-16h108.688l5.656,5.656c1.512,1.512,3.552,2.344,5.656,2.344c0.44,0,0.872-0.04,1.312-0.112l48-8    c3.856-0.64,6.688-3.976,6.688-7.888v-32C440,380.088,437.168,376.752,433.312,376.112z M248,384v32v16h-20.688l-13.656-13.656    c-3.128-3.128-8.184-3.128-11.312,0L188.688,432H56v-64h131.832l14.688,13.832c1.544,1.456,3.664,2.344,5.736,2.168    c2.128-0.064,4.136-0.968,5.584-2.52L226.472,368H248V384z M424,409.224l-37.256,6.2l-5.088-5.088    C380.16,408.84,378.128,408,376,408H264v-16h112c2.128,0,4.16-0.84,5.656-2.344l5.088-5.088L424,390.776V409.224z" fill="#FFFFFF"/>
	</g>
</g>
<g>
	<g>
		<path d="M424,296h-52l-18-24l18-24h52c3.08,0,5.872-1.768,7.208-4.528c1.328-2.776,0.96-6.064-0.96-8.472l-32-40    c-1.52-1.896-3.816-3-6.248-3h-48c-2.128,0-4.16,0.84-5.656,2.344L292.688,240H64c-17.648,0-32,14.352-32,32s14.352,32,32,32    h228.688l45.656,45.656C339.84,351.16,341.872,352,344,352h48c2.432,0,4.728-1.104,6.248-3l32-40    c1.92-2.408,2.288-5.696,0.96-8.472C429.872,297.768,427.08,296,424,296z M388.16,335.992h-40.84l-45.656-45.656    C300.16,288.84,298.128,288,296,288H64c-8.824,0-16-7.176-16-16c0-8.824,7.176-16,16-16h232c2.128,0,4.16-0.84,5.656-2.344    L347.312,208h40.84l19.192,24H368c-2.512,0-4.888,1.184-6.4,3.2l-24,32c-2.136,2.84-2.136,6.752,0,9.592l24,32    c1.504,2.016,3.88,3.2,6.4,3.2h39.352L388.16,335.992z" fill="#FFFFFF"/>
	</g>
</g>
<g>
	<g>
		<rect x="72" y="384" width="56" height="16" fill="#FFFFFF"/>
	</g>
</g>
<g>
	<g>
		<rect x="144" y="384" width="16" height="16" fill="#FFFFFF"/>
	</g>
</g>
<g>
</g>
<g>
</g>
<g>
</g>
<g>
</g>
<g>
</g>
<g>
</g>
<g>
</g>
<g>
</g>
<g>
</g>
<g>
</g>
<g>
</g>
<g>
</g>
<g>
</g>
<g>
</g>
<g>
</g>
</svg>
