<?xml version="1.0" encoding="UTF-8" standalone="no"?>
<!-- Generator: Adobe Illustrator 18.1.1, SVG Export Plug-In . SVG Version: 6.00 Build 0)  -->

<svg
   xmlns:dc="http://purl.org/dc/elements/1.1/"
   xmlns:cc="http://creativecommons.org/ns#"
   xmlns:rdf="http://www.w3.org/1999/02/22-rdf-syntax-ns#"
   xmlns:svg="http://www.w3.org/2000/svg"
   xmlns="http://www.w3.org/2000/svg"
   xmlns:sodipodi="http://sodipodi.sourceforge.net/DTD/sodipodi-0.dtd"
   xmlns:inkscape="http://www.inkscape.org/namespaces/inkscape"
   version="1.1"
   id="Capa_1"
   x="0px"
   y="0px"
   viewBox="0 0 121 121"
   xml:space="preserve"
   inkscape:version="0.92.3 (2405546, 2018-03-11)"
   sodipodi:docname="only-wp.svg"
   width="121"
   height="121"
   inkscape:export-filename="/home/iGenius/Scaricati/daniele-wordpress-boilerplate-branding/final-png/atom-color-pin.png"
   inkscape:export-xdpi="900"
   inkscape:export-ydpi="900"><metadata
     id="metadata4307"><rdf:RDF><cc:Work
         rdf:about=""><dc:format>image/svg+xml</dc:format><dc:type
           rdf:resource="http://purl.org/dc/dcmitype/StillImage" /><dc:title /></cc:Work></rdf:RDF></metadata><defs
     id="defs4305" /><sodipodi:namedview
     pagecolor="#ffffff"
     bordercolor="#666666"
     borderopacity="1"
     objecttolerance="10"
     gridtolerance="10"
     guidetolerance="10"
     inkscape:pageopacity="0"
     inkscape:pageshadow="2"
     inkscape:window-width="1600"
     inkscape:window-height="841"
     id="namedview4303"
     showgrid="false"
     inkscape:zoom="4.88"
     inkscape:cx="25.513915"
     inkscape:cy="18.596048"
     inkscape:window-x="0"
     inkscape:window-y="0"
     inkscape:window-maximized="1"
     inkscape:current-layer="Capa_1" /><g
     id="g4273"
     transform="translate(0,95.075)" /><g
     id="g4275"
     transform="translate(0,95.075)" /><g
     id="g4277"
     transform="translate(0,95.075)" /><g
     id="g4279"
     transform="translate(0,95.075)" /><g
     id="g4281"
     transform="translate(0,95.075)" /><g
     id="g4283"
     transform="translate(0,95.075)" /><g
     id="g4285"
     transform="translate(0,95.075)" /><g
     id="g4287"
     transform="translate(0,95.075)" /><g
     id="g4289"
     transform="translate(0,95.075)" /><g
     id="g4291"
     transform="translate(0,95.075)" /><g
     id="g4293"
     transform="translate(0,95.075)" /><g
     id="g4295"
     transform="translate(0,95.075)" /><g
     id="g4297"
     transform="translate(0,95.075)" /><g
     id="g4299"
     transform="translate(0,95.075)" /><g
     id="g4301"
     transform="translate(0,95.075)" /><ellipse
     style="fill:#000000;fill-opacity:1;fill-rule:nonzero;stroke:none;stroke-width:0.72806722;stroke-linecap:butt;stroke-linejoin:miter;stroke-miterlimit:4;stroke-dasharray:none;stroke-dashoffset:0;stroke-opacity:0.38823529"
     id="path5109"
     cx="60.989967"
     cy="60.878834"
     rx="14.648484"
     ry="14.474725" /><g
     id="g5069"
     transform="translate(-82.936389,-31.772181)"><g
       transform="matrix(0.08601951,0,0,0.08601951,131.14921,79.800652)"
       id="g4987"
       style="fill:#808080;fill-opacity:1"><g
         id="XMLID_21_"
         style="fill:#808080;fill-opacity:1"><path
           inkscape:connector-curvature="0"
           id="XMLID_4_"
           d="m 0.005,149.995 c 0,59.367 34.502,110.683 84.543,134.992 L 12.994,88.953 C 4.674,107.607 0.005,128.25 0.005,149.995 Z m 251.254,-7.566 c 0,-18.544 -6.661,-31.377 -12.367,-41.366 -7.602,-12.362 -14.729,-22.817 -14.729,-35.18 0,-13.788 10.449,-26.621 25.184,-26.621 0.668,0 1.301,0.081 1.943,0.122 C 224.608,14.932 189.049,0 150,0 97.597,0 51.497,26.89 24.674,67.603 c 3.525,0.116 6.843,0.188 9.655,0.188 15.685,0 39.98,-1.907 39.98,-1.907 8.083,-0.476 9.033,11.406 0.956,12.362 0,0 -8.129,0.951 -17.163,1.422 l 54.619,162.478 32.827,-98.447 -23.368,-64.032 c -8.083,-0.471 -15.73,-1.422 -15.73,-1.422 -8.083,-0.48 -7.138,-12.838 0.95,-12.362 0,0 24.766,1.907 39.505,1.907 15.686,0 39.98,-1.907 39.98,-1.907 8.083,-0.476 9.039,11.406 0.956,12.362 0,0 -8.138,0.951 -17.162,1.422 l 54.203,161.238 14.962,-49.984 c 7.606,-19.494 11.415,-35.655 11.415,-48.492 z m -98.623,20.687 -45.008,130.774 c 13.439,3.951 27.652,6.11 42.372,6.11 17.471,0 34.224,-3.015 49.813,-8.503 -0.395,-0.643 -0.769,-1.324 -1.072,-2.068 z M 281.624,78.038 c 0.647,4.774 1.012,9.898 1.012,15.422 0,15.215 -2.854,32.326 -11.412,53.723 l -45.812,132.459 c 44.598,-26 74.583,-74.311 74.583,-129.646 0,-26.081 -6.667,-50.598 -18.371,-71.958 z"
           style="fill:#ffffff;fill-opacity:1" /></g><g
         id="g4951"
         style="fill:#808080;fill-opacity:1" /><g
         id="g4953"
         style="fill:#808080;fill-opacity:1" /><g
         id="g4955"
         style="fill:#808080;fill-opacity:1" /><g
         id="g4957"
         style="fill:#808080;fill-opacity:1" /><g
         id="g4959"
         style="fill:#808080;fill-opacity:1" /><g
         id="g4961"
         style="fill:#808080;fill-opacity:1" /><g
         id="g4963"
         style="fill:#808080;fill-opacity:1" /><g
         id="g4965"
         style="fill:#808080;fill-opacity:1" /><g
         id="g4967"
         style="fill:#808080;fill-opacity:1" /><g
         id="g4969"
         style="fill:#808080;fill-opacity:1" /><g
         id="g4971"
         style="fill:#808080;fill-opacity:1" /><g
         id="g4973"
         style="fill:#808080;fill-opacity:1" /><g
         id="g4975"
         style="fill:#808080;fill-opacity:1" /><g
         id="g4977"
         style="fill:#808080;fill-opacity:1" /><g
         id="g4979"
         style="fill:#808080;fill-opacity:1" /></g><g
       transform="matrix(-0.16537048,0.10208861,0.10208889,0.16537003,160.76718,24.807575)"
       id="g5048"><g
         id="g5012" /><g
         id="g5014" /><g
         id="g5016" /><g
         id="g5018" /><g
         id="g5020" /><g
         id="g5022" /><g
         id="g5024" /><g
         id="g5026" /><g
         id="g5028" /><g
         id="g5030" /><g
         id="g5032" /><g
         id="g5034" /><g
         id="g5036" /><g
         id="g5038" /><g
         id="g5040" /></g></g></svg>