<?xml version="1.0" encoding="UTF-8" standalone="no"?>
<!-- Generator: Adobe Illustrator 18.1.1, SVG Export Plug-In . SVG Version: 6.00 Build 0)  -->

<svg
   xmlns:dc="http://purl.org/dc/elements/1.1/"
   xmlns:cc="http://creativecommons.org/ns#"
   xmlns:rdf="http://www.w3.org/1999/02/22-rdf-syntax-ns#"
   xmlns:svg="http://www.w3.org/2000/svg"
   xmlns="http://www.w3.org/2000/svg"
   xmlns:sodipodi="http://sodipodi.sourceforge.net/DTD/sodipodi-0.dtd"
   xmlns:inkscape="http://www.inkscape.org/namespaces/inkscape"
   version="1.1"
   id="Capa_1"
   x="0px"
   y="0px"
   viewBox="0 0 121 121"
   xml:space="preserve"
   inkscape:version="0.92.3 (2405546, 2018-03-11)"
   sodipodi:docname="atom-color-pin.svg"
   width="121"
   height="121"
   inkscape:export-filename="/home/iGenius/Scaricati/daniele-wordpress-boilerplate-branding/final-png/atom-color-pin.png"
   inkscape:export-xdpi="900"
   inkscape:export-ydpi="900"><metadata
     id="metadata4307"><rdf:RDF><cc:Work
         rdf:about=""><dc:format>image/svg+xml</dc:format><dc:type
           rdf:resource="http://purl.org/dc/dcmitype/StillImage" /><dc:title></dc:title></cc:Work></rdf:RDF></metadata><defs
     id="defs4305" /><sodipodi:namedview
     pagecolor="#ffffff"
     bordercolor="#666666"
     borderopacity="1"
     objecttolerance="10"
     gridtolerance="10"
     guidetolerance="10"
     inkscape:pageopacity="0"
     inkscape:pageshadow="2"
     inkscape:window-width="1600"
     inkscape:window-height="841"
     id="namedview4303"
     showgrid="false"
     inkscape:zoom="2.8775224"
     inkscape:cx="100.05721"
     inkscape:cy="18.596048"
     inkscape:window-x="0"
     inkscape:window-y="0"
     inkscape:window-maximized="1"
     inkscape:current-layer="Capa_1" /><g
     id="g4273"
     transform="translate(0,95.075)" /><g
     id="g4275"
     transform="translate(0,95.075)" /><g
     id="g4277"
     transform="translate(0,95.075)" /><g
     id="g4279"
     transform="translate(0,95.075)" /><g
     id="g4281"
     transform="translate(0,95.075)" /><g
     id="g4283"
     transform="translate(0,95.075)" /><g
     id="g4285"
     transform="translate(0,95.075)" /><g
     id="g4287"
     transform="translate(0,95.075)" /><g
     id="g4289"
     transform="translate(0,95.075)" /><g
     id="g4291"
     transform="translate(0,95.075)" /><g
     id="g4293"
     transform="translate(0,95.075)" /><g
     id="g4295"
     transform="translate(0,95.075)" /><g
     id="g4297"
     transform="translate(0,95.075)" /><g
     id="g4299"
     transform="translate(0,95.075)" /><g
     id="g4301"
     transform="translate(0,95.075)" /><circle
     style="fill:#000000;fill-opacity:1;fill-rule:nonzero;stroke:none;stroke-width:3;stroke-linecap:butt;stroke-linejoin:miter;stroke-miterlimit:4;stroke-dasharray:none;stroke-dashoffset:0;stroke-opacity:0.38823529"
     id="path5109"
     cx="60.468685"
     cy="60.87883"
     r="60" /><g
     id="g5069"
     transform="translate(-82.936389,-31.772181)"><g
       transform="matrix(0.08601951,0,0,0.08601951,131.14921,79.800652)"
       id="g4987"
       style="fill:#808080;fill-opacity:1"><g
         id="XMLID_21_"
         style="fill:#808080;fill-opacity:1"><path
           inkscape:connector-curvature="0"
           id="XMLID_4_"
           d="m 0.005,149.995 c 0,59.367 34.502,110.683 84.543,134.992 L 12.994,88.953 C 4.674,107.607 0.005,128.25 0.005,149.995 Z m 251.254,-7.566 c 0,-18.544 -6.661,-31.377 -12.367,-41.366 -7.602,-12.362 -14.729,-22.817 -14.729,-35.18 0,-13.788 10.449,-26.621 25.184,-26.621 0.668,0 1.301,0.081 1.943,0.122 C 224.608,14.932 189.049,0 150,0 97.597,0 51.497,26.89 24.674,67.603 c 3.525,0.116 6.843,0.188 9.655,0.188 15.685,0 39.98,-1.907 39.98,-1.907 8.083,-0.476 9.033,11.406 0.956,12.362 0,0 -8.129,0.951 -17.163,1.422 l 54.619,162.478 32.827,-98.447 -23.368,-64.032 c -8.083,-0.471 -15.73,-1.422 -15.73,-1.422 -8.083,-0.48 -7.138,-12.838 0.95,-12.362 0,0 24.766,1.907 39.505,1.907 15.686,0 39.98,-1.907 39.98,-1.907 8.083,-0.476 9.039,11.406 0.956,12.362 0,0 -8.138,0.951 -17.162,1.422 l 54.203,161.238 14.962,-49.984 c 7.606,-19.494 11.415,-35.655 11.415,-48.492 z m -98.623,20.687 -45.008,130.774 c 13.439,3.951 27.652,6.11 42.372,6.11 17.471,0 34.224,-3.015 49.813,-8.503 -0.395,-0.643 -0.769,-1.324 -1.072,-2.068 z M 281.624,78.038 c 0.647,4.774 1.012,9.898 1.012,15.422 0,15.215 -2.854,32.326 -11.412,53.723 l -45.812,132.459 c 44.598,-26 74.583,-74.311 74.583,-129.646 0,-26.081 -6.667,-50.598 -18.371,-71.958 z"
           style="fill:#ffffff;fill-opacity:1" /></g><g
         id="g4951"
         style="fill:#808080;fill-opacity:1" /><g
         id="g4953"
         style="fill:#808080;fill-opacity:1" /><g
         id="g4955"
         style="fill:#808080;fill-opacity:1" /><g
         id="g4957"
         style="fill:#808080;fill-opacity:1" /><g
         id="g4959"
         style="fill:#808080;fill-opacity:1" /><g
         id="g4961"
         style="fill:#808080;fill-opacity:1" /><g
         id="g4963"
         style="fill:#808080;fill-opacity:1" /><g
         id="g4965"
         style="fill:#808080;fill-opacity:1" /><g
         id="g4967"
         style="fill:#808080;fill-opacity:1" /><g
         id="g4969"
         style="fill:#808080;fill-opacity:1" /><g
         id="g4971"
         style="fill:#808080;fill-opacity:1" /><g
         id="g4973"
         style="fill:#808080;fill-opacity:1" /><g
         id="g4975"
         style="fill:#808080;fill-opacity:1" /><g
         id="g4977"
         style="fill:#808080;fill-opacity:1" /><g
         id="g4979"
         style="fill:#808080;fill-opacity:1" /></g><g
       transform="matrix(-0.16537048,0.10208861,0.10208889,0.16537003,160.76718,24.807575)"
       id="g5048"><path
         inkscape:connector-curvature="0"
         style="fill:#ffffff;fill-opacity:1"
         d="M 408.146,168.157 C 423.665,100.764 415.014,52.204 384.002,34.294 353,16.404 306.62,33.19 256.007,80.317 205.4,33.181 159.02,16.394 127.996,34.297 112.537,43.224 102.281,60.405 98.337,83.984 l 17.409,2.912 c 3.089,-18.468 10.18,-31.021 21.075,-37.313 23.031,-13.296 63.406,3.193 106.523,43.07 -16.614,16.92 -32.812,36.322 -48.277,57.819 -26.32,2.649 -51.221,6.968 -74.194,12.896 -2.969,-13.095 -5.003,-25.568 -6.032,-37.16 l -17.58,1.559 c 1.12,12.639 3.346,26.196 6.6,40.389 C 37.73,188.43 0,220.205 0,256.007 0,291.8 37.727,323.571 103.856,343.845 88.349,411.239 96.998,459.798 128,477.709 c 8.013,4.623 17.173,6.928 27.258,6.928 12.429,0 26.258,-3.503 41.057,-10.485 l -7.531,-15.961 c -14.881,7.021 -35.974,13.456 -51.959,4.235 -23.018,-13.299 -28.922,-56.508 -15.952,-113.788 22.973,5.929 47.875,10.247 74.195,12.897 15.493,21.528 31.697,40.932 48.285,57.82 -7.006,6.489 -14.023,12.444 -20.94,17.756 -0.361,0.278 -0.701,0.582 -1.014,0.913 l -0.012,0.012 6.434,6.116 5.343,6.956 c 7.564,-5.809 15.224,-12.33 22.844,-19.424 37.332,34.77 72.358,53.031 100.615,53.029 10.049,-0.001 19.245,-2.31 27.382,-7.005 31.009,-17.908 39.659,-66.465 24.144,-133.852 19.14,-5.875 36.134,-12.819 50.61,-20.685 l -8.427,-15.508 c -13.241,7.194 -28.865,13.589 -46.532,19.061 -6.333,-22.813 -15.032,-46.543 -25.923,-70.716 10.891,-24.185 19.589,-47.914 25.919,-70.716 56.091,17.413 90.555,44.134 90.555,70.716 0,9.624 -4.37,19.268 -12.987,28.665 l 13.008,11.93 c 11.697,-12.755 17.629,-26.412 17.629,-40.595 C 512,220.207 474.274,188.431 408.146,168.157 Z M 375.178,49.579 c 23.027,13.299 28.931,56.506 15.953,113.787 -22.958,-5.927 -47.856,-10.245 -74.184,-12.895 C 301.511,129 285.313,109.599 268.67,92.652 311.79,52.783 352.158,36.294 375.178,49.579 Z M 256.006,407.046 c -12.796,-13.02 -25.373,-27.624 -37.573,-43.619 12.413,0.752 24.984,1.139 37.573,1.139 12.586,0 25.159,-0.387 37.578,-1.139 -12.181,15.975 -24.76,30.578 -37.578,43.619 z m 0.001,-302.099 c 12.835,13.063 25.416,27.672 37.584,43.633 -24.852,-1.498 -50.33,-1.498 -75.163,-0.001 12.184,-15.979 24.764,-30.586 37.579,-43.632 z m 51.222,239.782 c -33.578,2.888 -68.908,2.886 -102.447,0.001 -9.605,-13.754 -18.849,-28.287 -27.504,-43.273 -8.579,-14.838 -16.541,-30.112 -23.718,-45.45 7.169,-15.324 15.132,-30.6 23.72,-45.465 8.685,-15.04 17.929,-29.571 27.5,-43.268 33.541,-2.885 68.871,-2.888 102.451,0 9.556,13.676 18.803,28.206 27.509,43.266 8.641,14.975 16.602,30.251 23.712,45.468 -7.119,15.232 -15.078,30.504 -23.708,45.45 -8.676,15.008 -17.925,29.539 -27.515,43.271 z M 161.998,201.713 c -6.28,10.87 -12.234,21.958 -17.808,33.126 -7.748,-18.561 -14.112,-36.759 -19,-54.359 17.712,-4.576 36.653,-8.158 56.563,-10.724 -6.818,10.318 -13.433,21.008 -19.755,31.957 z m -17.81,75.457 c 5.579,11.177 11.532,22.262 17.808,33.117 6.307,10.923 12.924,21.614 19.762,31.96 -19.913,-2.566 -38.854,-6.149 -56.568,-10.725 4.89,-17.605 11.252,-35.8 18.998,-54.352 z m 205.84,33.117 c 6.301,-10.91 12.251,-21.992 17.799,-33.109 7.748,18.558 14.107,36.751 18.987,54.344 -17.703,4.575 -36.642,8.158 -56.559,10.725 6.83,-10.335 13.45,-21.024 19.773,-31.96 z m -0.002,-108.576 c -6.337,-10.959 -12.955,-21.648 -19.767,-31.955 19.916,2.567 38.853,6.15 56.555,10.724 -4.878,17.59 -11.237,35.785 -18.988,54.353 -5.544,-11.109 -11.495,-22.195 -17.8,-33.122 z M 17.65,256.007 c 0,-26.582 34.466,-53.303 90.559,-70.717 6.342,22.817 15.041,46.545 25.928,70.716 -10.884,24.157 -19.583,47.882 -25.929,70.706 C 52.114,309.299 17.65,282.583 17.65,256.007 Z m 357.53,206.414 c -23.025,13.29 -63.391,-3.204 -106.509,-43.08 16.614,-16.913 32.814,-36.312 48.275,-57.809 26.328,-2.65 51.226,-6.969 74.185,-12.895 12.978,57.278 7.074,100.488 -15.951,113.784 z"
         id="path5004" /><path
         inkscape:connector-curvature="0"
         style="fill:#f95428"
         d="m 492.972,286.16 c 4.275,4.853 6.865,11.234 6.865,18.208 0,15.259 -12.373,27.632 -27.632,27.632 -9.876,0 -18.551,-5.18 -23.419,-12.981 -2.684,-4.244 -4.212,-9.267 -4.212,-14.651 0,-15.259 12.373,-27.632 27.632,-27.632 8.284,0 15.711,3.651 20.766,9.424 z"
         id="path5006" /><path
         inkscape:connector-curvature="0"
         style="fill:#2ba5f7"
         d="m 231.754,438.342 c 4.275,4.853 6.865,11.234 6.865,18.208 0,15.259 -12.373,27.632 -27.632,27.632 -9.876,0 -18.551,-5.18 -23.419,-12.981 -2.684,-4.244 -4.212,-9.267 -4.212,-14.651 0,-15.259 12.373,-27.632 27.632,-27.632 8.284,0 15.711,3.65 20.766,9.424 z"
         id="path5008" /><path
         inkscape:connector-curvature="0"
         style="fill:#f7b239"
         d="m 125.07,88.481 c 4.275,4.853 6.865,11.234 6.865,18.208 0,15.259 -12.373,27.632 -27.632,27.632 -9.876,0 -18.551,-5.18 -23.419,-12.981 -2.684,-4.244 -4.212,-9.267 -4.212,-14.651 0,-15.259 12.373,-27.632 27.632,-27.632 8.285,0 15.711,3.651 20.766,9.424 z"
         id="path5010" /><g
         id="g5012" /><g
         id="g5014" /><g
         id="g5016" /><g
         id="g5018" /><g
         id="g5020" /><g
         id="g5022" /><g
         id="g5024" /><g
         id="g5026" /><g
         id="g5028" /><g
         id="g5030" /><g
         id="g5032" /><g
         id="g5034" /><g
         id="g5036" /><g
         id="g5038" /><g
         id="g5040" /></g></g></svg>