<?xml version="1.0" encoding="iso-8859-1"?>
<!-- Generator: Adobe Illustrator 19.2.1, SVG Export Plug-In . SVG Version: 6.00 Build 0)  -->
<svg xmlns="http://www.w3.org/2000/svg" xmlns:xlink="http://www.w3.org/1999/xlink" version="1.1" id="Layer_1_1_" x="0px" y="0px" viewBox="0 0 64 64" style="enable-background:new 0 0 64 64;" xml:space="preserve" width="512px" height="512px">
<g>
</g>
<g>
	<path d="M59.063,33.013l0.919-4.826c0.056-0.292-0.022-0.595-0.212-0.825C59.58,27.133,59.298,27,59,27h-3v-3.184   c1.161-0.414,2-1.514,2-2.816v-2c0-0.552-0.447-1-1-1h-4c-0.553,0-1,0.448-1,1v2c0,1.302,0.839,2.402,2,2.816V27h-3   c-0.298,0-0.58,0.133-0.771,0.362c-0.189,0.229-0.268,0.532-0.212,0.825L50.934,33H40v-2h5c1.654,0,3-1.346,3-3V18   c0-1.654-1.346-3-3-3H27c-1.654,0-3,1.346-3,3v10c0,1.654,1.346,3,3,3h5v2h-8v-1c0-1.103-0.897-2-2-2h-3c-1.103,0-2,0.897-2,2v1   h-1.101c-0.422-2.069-2.131-3.655-4.248-3.934l-3.222-6.444C9.36,22.112,10,21.134,10,20c0-0.768-0.299-1.463-0.775-1.994   l1.869-0.935C11.037,17.373,11,17.682,11,18c0,0.552,0.447,1,1,1h8c0.553,0,1-0.448,1-1c0-1.641-0.806-3.088-2.031-4H19v-1   c0-1.654-1.346-3-3-3s-3,1.346-3,3v0.882L6.704,17.03C5.19,17.181,4,18.447,4,20c0,1.428,1.005,2.621,2.343,2.922l3.165,6.33   C7.793,29.794,6.465,31.214,6.101,33H5c-0.553,0-1,0.448-1,1v4c0,0.552,0.447,1,1,1h2v20c0,0.552,0.447,1,1,1h5   c0.553,0,1-0.448,1-1V39h36v20c0,0.552,0.447,1,1,1h5c0.553,0,1-0.448,1-1V39h2c0.553,0,1-0.448,1-1v-4   C60,33.47,59.585,33.047,59.063,33.013z M54,20h2v1c0,0.551-0.448,1-1,1s-1-0.449-1-1V20z M52.208,29h5.584l-0.762,4H52.97   L52.208,29z M27,17h18c0.552,0,1,0.449,1,1v7H26v-7C26,17.449,26.448,17,27,17z M26,28v-1h20v1c0,0.551-0.448,1-1,1h-6h-6h-6   C26.448,29,26,28.551,26,28z M34,31h4v2h-4V31z M19,32h3v1h-3V32z M13.171,17c0.413-1.164,1.525-2,2.829-2s2.416,0.836,2.829,2   H13.171z M16,12c0.552,0,1,0.449,1,1v0.101C16.677,13.035,16.342,13,16,13s-0.677,0.035-1,0.101V13C15,12.449,15.448,12,16,12z    M7,19c0.552,0,1,0.449,1,1s-0.448,1-1,1s-1-0.449-1-1S6.448,19,7,19z M11,31c1.304,0,2.416,0.836,2.829,2H8.171   C8.584,31.836,9.696,31,11,31z M12,58H9V39h3V58z M55,58h-3V39h3V58z M58,37h-2h-5H13H8H6v-2h1h8h3h5h10h6h13.143h5.715H58V37z" fill="#FFFFFF"/>
	<path d="M39,44c0-1.654-1.346-3-3-3h-8c-1.654,0-3,1.346-3,3s1.346,3,3,3h0.646l-3.602,11.706C25.015,58.801,25,58.9,25,59v1h2   v-0.85L30.739,47H31v13h2V47h0.261L37,59.15V60h2v-1c0-0.1-0.015-0.199-0.044-0.294L35.354,47H36C37.654,47,39,45.654,39,44z    M27,44c0-0.551,0.448-1,1-1h8c0.552,0,1,0.449,1,1s-0.448,1-1,1h-8C27.448,45,27,44.551,27,44z" fill="#FFFFFF"/>
	<path d="M59,4H49c-0.553,0-1,0.448-1,1v8c0,0.552,0.447,1,1,1h10c0.553,0,1-0.448,1-1V5C60,4.448,59.553,4,59,4z M58,6v3l-2.4-1.8   c-0.398-0.299-0.955-0.26-1.307,0.093l-1.49,1.49l-1.355-0.678c-0.386-0.191-0.849-0.118-1.154,0.188L50,8.586V6H58z M50,12v-0.586   l1.197-1.197l1.355,0.678c0.384,0.19,0.848,0.117,1.154-0.188l1.387-1.387L58,11.5V12H50z" fill="#FFFFFF"/>
	<rect x="30.172" y="20" transform="matrix(0.7071 -0.7071 0.7071 0.7071 -5.1838 29.4853)" width="5.657" height="2" fill="#FFFFFF"/>
	<rect x="36.172" y="20" transform="matrix(0.7071 -0.7071 0.7071 0.7071 -3.4264 33.7279)" width="5.657" height="2" fill="#FFFFFF"/>
</g>
</svg>
