<?xml version="1.0" encoding="iso-8859-1"?>
<!-- Generator: Adobe Illustrator 19.0.0, SVG Export Plug-In . SVG Version: 6.00 Build 0)  -->
<svg version="1.1" id="Capa_1" xmlns="http://www.w3.org/2000/svg" xmlns:xlink="http://www.w3.org/1999/xlink" x="0px" y="0px"
	 viewBox="0 0 480 480" style="enable-background:new 0 0 480 480;" xml:space="preserve">
<g>
	<g>
		<polygon points="400,48 400,32 384,32 384,48 368,48 368,64 384,64 384,80 400,80 400,64 416,64 416,48 		"/>
	</g>
</g>
<g>
	<g>
		<polygon points="464,16 464,0 448,0 448,16 432,16 432,32 448,32 448,48 464,48 464,32 480,32 480,16 		"/>
	</g>
</g>
<g>
	<g>
		<path d="M457.656,118.344c-14.144-14.152-37.168-14.152-51.312,0l-28,28L344,180.688V56c0-4.416-3.576-8-8-8H32
			c-4.424,0-8,3.584-8,8v32H0v16h24v32H0v16h24v32H0v16h24v32H0v16h24v32H0v16h24v32H0v16h24v32H0v16h24v32H0v16h24v32
			c0,4.416,3.576,8,8,8h272c22.056,0,40-17.944,40-40V283.312l85.656-85.656l28-28C471.808,155.504,471.808,132.488,457.656,118.344
			z M328,440c0,13.232-10.768,24-24,24H40v-24h16v-16H40v-32h16v-16H40v-32h16v-16H40v-32h16v-16H40v-32h16v-16H40v-32h16v-16H40
			v-32h16v-16H40v-32h16V88H40V64h288v132.688l-85.656,85.656C240.84,283.84,240,285.88,240,288v40c0,4.416,3.576,8,8,8h40
			c2.128,0,4.16-0.84,5.656-2.344L328,299.312V440z M284.688,320H256v-28.688l128-128L412.688,192L284.688,320z M446.344,158.344
			L424,180.688L395.312,152l22.344-22.344c7.904-7.904,20.784-7.904,28.688,0C454.248,137.568,454.248,150.432,446.344,158.344z"/>
	</g>
</g>
<g>
	<g>
		<rect x="80" y="328" width="144" height="16"/>
	</g>
</g>
<g>
	<g>
		<rect x="80" y="296" width="144" height="16"/>
	</g>
</g>
<g>
	<g>
		<rect x="80" y="264" width="144" height="16"/>
	</g>
</g>
<g>
	<g>
		<rect x="80" y="232" width="176" height="16"/>
	</g>
</g>
<g>
	<g>
		<rect x="80" y="200" width="192" height="16"/>
	</g>
</g>
<g>
	<g>
		<rect x="80" y="168" width="208" height="16"/>
	</g>
</g>
<g>
	<g>
		<rect x="80" y="136" width="224" height="16"/>
	</g>
</g>
<g>
	<g>
		<rect x="80" y="104" width="224" height="16"/>
	</g>
</g>
<g>
</g>
<g>
</g>
<g>
</g>
<g>
</g>
<g>
</g>
<g>
</g>
<g>
</g>
<g>
</g>
<g>
</g>
<g>
</g>
<g>
</g>
<g>
</g>
<g>
</g>
<g>
</g>
<g>
</g>
</svg>
